<svg width="520" height="363" viewBox="0 0 520 363" fill="none" xmlns="http://www.w3.org/2000/svg">
  <defs>
    <filter id="shadow" x="-50" y="-50" width="620" height="463" filterUnits="userSpaceOnUse" color-interpolation-filters="sRGB">
      <feDropShadow dx="0" dy="24" stdDeviation="30" flood-color="#0B1F3A" flood-opacity="0.22"/>
    </filter>
    <style>
      text { font-family: "OPPO Sans 4.0", "OPPO Sans", sans-serif; }
    </style>
  </defs>
  <rect x="0.5" y="0.5" width="519" height="362" rx="16" fill="#F4F7FB" stroke="#C6D4E6" filter="url(#shadow)"/>
  <text x="22" y="43" fill="#0B1F3A" font-size="22" font-weight="700">上传写作报告</text>
  <rect x="485" y="20" width="32" height="32" rx="8" fill="#E7EEF7"/>
  <text x="496" y="42" fill="#4F6A8F" font-size="18" font-weight="400">×</text>
  <text x="22" y="85" fill="#1E3A63" font-size="14" font-weight="400">上传你的写作报告 PDF，AI 将按学习方案模版生成专属提升计划。</text>

  <rect x="22.75" y="111.75" width="230.5" height="131.5" rx="12" fill="#E7EEF7" stroke="#C6D4E6" stroke-width="1.5" stroke-dasharray="5 4"/>
  <text x="95" y="153" fill="#1E5FD6" font-size="13" font-weight="400" letter-spacing="1.56">文件 1</text>
  <text x="119" y="188" fill="#4F6A8F" font-size="12" font-weight="400">点击或拖拽 PDF</text>
  <g transform="translate(121 164)">
    <path d="M5 0h14l9 9v31H5z" fill="#F4F7FB" stroke="#DDE6F2"/>
    <path d="M19 0v9h9" fill="#DDE6F2"/>
  </g>

  <rect x="265.75" y="111.75" width="230.5" height="131.5" rx="12" fill="#E7EEF7" stroke="#C6D4E6" stroke-width="1.5" stroke-dasharray="5 4"/>
  <text x="349" y="153" fill="#1E5FD6" font-size="13" font-weight="400" letter-spacing="1.56">文件 2（可选）</text>
  <text x="362" y="188" fill="#4F6A8F" font-size="12" font-weight="400">点击或拖拽 PDF</text>
  <g transform="translate(364 164)">
    <path d="M5 0h14l9 9v31H5z" fill="#F4F7FB" stroke="#DDE6F2"/>
    <path d="M19 0v9h9" fill="#DDE6F2"/>
  </g>

  <text x="22" y="276" fill="#4F6A8F" font-size="13" font-weight="400">支持 1 份 PDF，单文件不超过 5MB。提交后可关闭弹窗，生成将在后台继续。</text>
  <rect x="22" y="301" width="476" height="42" rx="16" fill="#0B1F3A"/>
  <text x="212" y="327" fill="#F4F7FB" font-size="14" font-weight="500">开始生成方案</text>
</svg>
